#!OML:ASF F:\VICON\USERDATA\INSTALL\rory3\rory3.ASF
:FULLY-SPECIFIED
:DEGREES
2631
root 11.6402 18.7733 1.27731 191.292 -31.3744 186.536
lowerback 17.7763 -2.88539 -2.84414
upperback 6.97276 -5.8223 -7.74564
thorax -3.01184 -3.33306 -5.43433
lowerneck -10.1378 14.8888 -3.28097
upperneck 12.4374 21.1553 -6.27672
head 5.78392 9.60068 0.239893
rclavicle 5.40694e-014 6.04305e-014
rhumerus -53.0991 49.9258 -74.0094
rradius 100.925
rwrist 13.45
rhand -37.6954 4.03172
rfingers 7.12502
rthumb -10.7454 334.327
lclavicle 5.40694e-014 6.04305e-014
lhumerus -11.1393 -49.7354 87.0235
lradius 63.9489
lwrist 109.871
lhand -41.9548 45.2925
lfingers 7.12502
lthumb -14.8516 -285.26
rfemur -18.3201 15.5178 19.6142
rtibia 18.7531
rfoot -14.8037 -14.8817
rtoes -4.92979
lfemur -29.9916 3.91391 3.98003
ltibia 29.336
lfoot -0.276481 18.721
ltoes 8.80517
2632
root 11.6326 18.7721 1.31437 191.183 -31.4822 186.836
lowerback 17.9063 -2.93222 -2.64757
upperback 7.00794 -5.85604 -7.7265
thorax -3.06084 -3.34715 -5.51155
lowerneck -10.1784 14.8747 -3.27402
upperneck 12.4096 21.136 -6.26366
head 5.78061 9.59461 0.243218
rclavicle -1.74931e-014 -1.97194e-013
rhumerus -53.1873 50.3032 -74.4812
rradius 101.079
rwrist 13.6576
rhand -37.7968 3.42262
rfingers 7.12502
rthumb -10.8433 333.723
lclavicle -1.74931e-014 -1.97194e-013
lhumerus -10.9068 -49.8167 87.0019
lradius 63.1124
lwrist 110.268
lhand -42.1713 44.6691
lfingers 7.12502
lthumb -15.0602 -285.899
rfemur -18.2859 15.3803 19.7862
rtibia 18.4383
rfoot -14.6645 -14.7745
rtoes -5.58184
lfemur -29.7898 3.48518 4.45116
ltibia 29.4469
lfoot -0.348606 19.2459
ltoes 8.33117
2633
root 11.6233 18.7679 1.349 191.096 -31.5666 187.159
lowerback 17.9595 -2.96956 -2.54082
upperback 7.05508 -5.88209 -7.67405
thorax -3.04446 -3.35781 -5.50855
lowerneck -10.2664 14.8707 -3.33169
upperneck 12.3846 21.1352 -6.18501
head 5.77217 9.59907 0.277596
rclavicle 6.99722e-014 6.67916e-014
rhumerus -53.296 50.7292 -75.0451
rradius 101.205
rwrist 13.9298
rhand -38.0466 2.60319
rfingers 7.12502
rthumb -11.0842 332.916
lclavicle 6.99722e-014 6.67916e-014
lhumerus -10.5321 -49.8035 86.8968
lradius 62.2054
lwrist 110.484
lhand -42.3169 44.1539
lfingers 7.12502
lthumb -15.2004 -286.424
rfemur -18.319 15.4347 19.9428
rtibia 18.1842
rfoot -14.5675 -14.8455
rtoes -6.67765
lfemur -29.6029 3.17018 4.89062
ltibia 29.5135
lfoot -0.547164 19.647
ltoes 6.82018
2634
root 11.6105 18.7621 1.39381 191.331 -31.5056 187.425
lowerback 17.7353 -2.95519 -2.45208
upperback 7.06308 -5.81949 -7.62781
thorax -2.91626 -3.32235 -5.53607
lowerneck -10.3268 14.8365 -3.32855
upperneck 12.2287 21.0948 -6.2353
head 5.73815 9.58761 0.258032
rclavicle 2.06736e-014 1.36764e-013
rhumerus -53.2322 51.0053 -75.4953
rradius 101.268
rwrist 14.1667
rhand -38.3982 1.77052
rfingers 7.12502
rthumb -11.4233 332.102
lclavicle 2.06736e-014 1.36764e-013
lhumerus -10.0233 -49.7261 86.7721
lradius 61.2687
lwrist 110.407
lhand -41.6212 42.5556
lfingers 7.12502
lthumb -14.5303 -287.973
rfemur -18.8054 15.4541 19.8988
rtibia 18.0155
rfoot -14.3407 -14.7283
rtoes -7.27517
lfemur -29.7068 3.02979 5.16351
ltibia 29.5652
lfoot -0.578603 19.9429
ltoes 4.36578
2635
root 11.5995 18.762 1.426 191.405 -31.5118 187.398
lowerback 17.8585 -2.89303 -2.71743
upperback 7.11794 -5.80254 -7.63125
thorax -2.89719 -3.3221 -5.38826
lowerneck -10.294 14.8151 -3.35605
upperneck 12.0751 21.0555 -6.20282
head 5.67683 9.58412 0.257241
rclavicle -4.92986e-014 -4.13472e-014
rhumerus -53.3106 51.2645 -76.1055
rradius 101.3
rwrist 14.513
rhand -38.3556 1.38153
rfingers 7.12502
rthumb -11.3822 331.71
lclavicle -4.92986e-014 -4.13472e-014
lhumerus -9.74778 -49.4896 86.8008
lradius 60.3585
lwrist 110.169
lhand -42.9119 42.4078
lfingers 7.12502
lthumb -15.7735 -288.215
rfemur -18.8417 15.5675 19.7138
rtibia 17.8512
rfoot -14.2199 -14.8088
rtoes -6.8737
lfemur -29.455 2.6508 5.17646
ltibia 29.5582
lfoot -0.759671 19.734
ltoes 4.13571
2636
root 11.5796 18.7651 1.4718 191.799 -31.4002 187.386
lowerback 17.7169 -2.87789 -2.80765
upperback 7.04004 -5.7909 -7.68173
thorax -2.90262 -3.3152 -5.39919
lowerneck -10.2101 14.8204 -3.32547
upperneck 11.8508 21.0484 -6.27122
head 5.60278 9.59674 0.217186
rclavicle 2.8625e-014 -1.01778e-013
rhumerus -53.4803 51.6152 -76.8817
rradius 101.332
rwrist 14.6885
rhand -38.3367 0.939135
rfingers 7.12502
rthumb -11.364 331.267
lclavicle 2.8625e-014 -1.01778e-013
lhumerus -9.53297 -49.1593 86.8339
lradius 59.4038
lwrist 109.946
lhand -41.6744 42.7432
lfingers 7.12502
lthumb -14.5815 -287.789
rfemur -19.3615 15.428 19.3923
rtibia 17.7194
rfoot -14.0006 -14.5292
rtoes -6.46055
lfemur -29.5479 2.19215 5.21678
ltibia 29.5511
lfoot -1.39473 19.473
ltoes 5.59106
2637
root 11.5626 18.7724 1.50028 191.829 -31.7209 187.379
lowerback 17.8656 -2.93212 -2.92396
upperback 7.12252 -5.89817 -7.6863
thorax -2.8906 -3.37311 -5.31036
lowerneck -10.1841 14.8197 -3.17689
upperneck 11.7303 21.0335 -6.37432
head 5.58676 9.59865 0.162901
rclavicle -4.45278e-014 -3.49861e-014
rhumerus -53.682 51.8802 -77.8232
rradius 101.24
rwrist 14.8155
rhand -38.7759 0.0563605
rfingers 7.12502
rthumb -11.7876 330.408
lclavicle -4.45278e-014 -3.49861e-014
lhumerus -9.30778 -48.8783 86.7956
lradius 58.4364
lwrist 109.637
lhand -42.7819 42.0395
lfingers 7.12502
lthumb -15.6483 -288.573
rfemur -19.3463 15.52 19.2553
rtibia 17.6071
rfoot -14.1854 -14.8745
rtoes -7.02178
lfemur -29.4841 1.45926 5.3664
ltibia 29.4652
lfoot -1.51622 18.9407
ltoes 4.62724
2638
root 11.5434 18.7705 1.53943 191.981 -31.9216 187.432
lowerback 17.9647 -2.94503 -2.91835
upperback 7.13882 -5.92624 -7.7156
thorax -2.93087 -3.38781 -5.33397
lowerneck -10.2018 14.7676 -3.07977
upperneck 11.6605 20.947 -6.34347
head 5.57204 9.56968 0.151368
rclavicle -5.40694e-014 -9.22361e-014
rhumerus -53.9992 52.0431 -78.8994
rradius 101.082
rwrist 15.0671
rhand -39.5264 -0.860873
rfingers 7.12502
rthumb -12.5112 329.534
lclavicle -5.40694e-014 -9.22361e-014
lhumerus -9.16 -48.6672 86.7851
lradius 57.5395
lwrist 109.093
lhand -41.6289 42.1776
lfingers 7.12502
lthumb -14.5376 -288.352
rfemur -19.5334 15.5946 19.0806
rtibia 17.4758
rfoot -14.1329 -15.0777
rtoes -5.77054
lfemur -29.6099 0.78682 5.56723
ltibia 29.37
lfoot -1.3 18.8712
ltoes 3.28984
2639
root 11.5246 18.7665 1.57816 192.146 -32.0213 187.545
lowerback 18.0588 -2.92655 -3.00047
upperback 7.12364 -5.91802 -7.67893
thorax -2.98414 -3.38254 -5.24338
lowerneck -10.2556 14.7124 -3.08304
upperneck 11.532 20.8792 -6.39599
head 5.54482 9.54147 0.130408
rclavicle -6.36111e-015 -6.36111e-014
rhumerus -54.2671 52.3625 -79.9515
rradius 100.9
rwrist 15.2665
rhand -40.2695 -1.67333
rfingers 7.12502
rthumb -13.2276 328.766
lclavicle -6.36111e-015 -6.36111e-014
lhumerus -9.00412 -48.1215 86.8617
lradius 56.7059
lwrist 108.484
lhand -40.7688 40.3956
lfingers 7.12502
lthumb -13.7088 -290.076
rfemur -19.812 15.7599 18.9376
rtibia 17.345
rfoot -14.2068 -15.3524
rtoes -6.40248
lfemur -29.6866 0.0851448 5.86179
ltibia 29.211
lfoot -1.19471 19.0688
ltoes 2.81783
2640
root 11.5015 18.7658 1.61473 192.294 -32.1242 187.687
lowerback 18.1095 -2.91619 -3.06573
upperback 7.14862 -5.90875 -7.60185
thorax -2.96882 -3.37681 -5.12342
lowerneck -10.3347 14.6948 -3.11731
upperneck 11.3904 20.8867 -6.61073
head 5.53466 9.53548 0.0761967
rclavicle -6.52014e-014 -1.145e-013
rhumerus -54.3111 52.8034 -80.7841
rradius 100.777
rwrist 15.3567
rhand -40.6704 -2.75088
rfingers 7.12502
rthumb -13.614 327.714
lclavicle -6.52014e-014 -1.145e-013
lhumerus -8.66646 -47.3649 86.8033
lradius 56.0441
lwrist 108.509
lhand -41.3474 40.8766
lfingers 7.12502
lthumb -14.2663 -289.633
rfemur -20.1296 15.8977 18.8205
rtibia 17.273
rfoot -13.33 -15.5683
rtoes -7.77681
lfemur -29.7792 -0.75912 6.23272
ltibia 29.0198
lfoot -1.4207 19.217
ltoes 1.40383
2641
root 11.4735 18.7658 1.65321 192.458 -32.2651 187.662
lowerback 18.2165 -2.89175 -3.19849
upperback 7.20775 -5.91356 -7.59996
thorax -2.94923 -3.38416 -5.04173
lowerneck -10.3555 14.7071 -3.04396
upperneck 11.2822 20.91 -6.76547
head 5.52944 9.54652 0.024038
rclavicle -4.45278e-014 -1.17681e-013
rhumerus -54.4283 53.0643 -81.7376
rradius 100.645
rwrist 15.5826
rhand -40.9005 -3.89835
rfingers 7.12502
rthumb -13.8358 326.582
lclavicle -4.45278e-014 -1.17681e-013
lhumerus -8.28501 -46.6234 86.6228
lradius 55.4074
lwrist 108.471
lhand -42.2072 41.9976
lfingers 7.12502
lthumb -15.0948 -288.573
rfemur -20.2898 15.9364 18.5577
rtibia 17.1801
rfoot -13.9787 -15.7108
rtoes -6.91925
lfemur -29.8685 -1.7254 6.43872
ltibia 28.7783
lfoot -1.68522 19.1757
ltoes 0.24295
2642
root 11.4448 18.7656 1.68995 192.658 -32.4405 187.63
lowerback 18.3198 -2.85131 -3.28166
upperback 7.23052 -5.89048 -7.62857
thorax -2.97244 -3.37589 -5.02559
lowerneck -10.2617 14.6518 -2.95636
upperneck 11.1302 20.8123 -6.78418
head 5.47479 9.51647 -0.0137174
rclavicle 3.65764e-014 1.01778e-013
rhumerus -54.7231 53.1709 -82.8951
rradius 100.455
rwrist 15.6055
rhand -41.2533 -4.81965
rfingers 7.12502
rthumb -14.1757 325.684
lclavicle 3.65764e-014 1.01778e-013
lhumerus -8.02393 -45.9694 86.5567
lradius 54.5384
lwrist 107.564
lhand -41.3907 42.1725
lfingers 7.12502
lthumb -14.3081 -288.34
rfemur -20.4378 16.0297 18.2787
rtibia 17.0595
rfoot -14.0003 -15.9638
rtoes -6.87592
lfemur -30.0651 -2.50392 6.59059
ltibia 28.5013
lfoot -1.86758 18.9907
ltoes -0.122175
2643
root 11.4144 18.7664 1.72467 192.876 -32.6843 187.524
lowerback 18.4863 -2.80795 -3.41612
upperback 7.2847 -5.87697 -7.63206
thorax -2.98817 -3.37409 -4.94909
lowerneck -10.2994 14.5609 -2.96404
upperneck 10.9526 20.6877 -6.78137
head 5.42132 9.46978 -0.0271034
rclavicle -1.08139e-013 -1.43125e-013
rhumerus -54.8532 53.239 -83.8442
rradius 100.258
rwrist 15.7168
rhand -41.5221 -5.67738
rfingers 7.12502
rthumb -14.4347 324.845
lclavicle -1.08139e-013 -1.43125e-013
lhumerus -7.76529 -45.5467 86.4686
lradius 53.8044
lwrist 106.897
lhand -42.1311 41.5817
lfingers 7.12502
lthumb -15.0214 -288.983
rfemur -20.5787 16.135 17.9378
rtibia 16.9575
rfoot -14.0597 -16.2979
rtoes -6.34261
lfemur -30.2995 -3.27938 6.67139
ltibia 28.2354
lfoot -2.27868 19.0045
ltoes -0.105381
2644
root 11.3823 18.7643 1.76285 193.103 -32.9186 187.355
lowerback 18.656 -2.77633 -3.63723
upperback 7.34885 -5.89892 -7.64725
thorax -2.9904 -3.39235 -4.82902
lowerneck -10.3037 14.51 -3.03427
upperneck 10.7286 20.6159 -6.7573
head 5.34038 9.45218 -0.0276893
rclavicle 1.27222e-014 2.8625e-014
rhumerus -54.9447 53.3195 -84.7769
rradius 100.078
rwrist 16.1365
rhand -41.6336 -6.69517
rfingers 7.12502
rthumb -14.5421 323.835
lclavicle 1.27222e-014 2.8625e-014
lhumerus -7.4674 -44.8733 86.2546
lradius 53.2508
lwrist 106.579
lhand -41.5096 42.2615
lfingers 7.12502
lthumb -14.4227 -288.26
rfemur -20.7153 16.2164 17.5333
rtibia 16.8778
rfoot -14.1091 -16.6005
rtoes -5.88774
lfemur -30.5205 -4.07103 6.69827
ltibia 28.0296
lfoot -2.84959 19.2636
ltoes 0.630184
2645
root 11.3484 18.7551 1.8038 193.282 -33.0271 187.531
lowerback 18.6534 -2.75079 -3.63329
upperback 7.34258 -5.8574 -7.61796
thorax -2.99021 -3.36934 -4.8087
lowerneck -10.1442 14.5034 -2.85807
upperneck 10.5135 20.5886 -7.0027
head 5.29096 9.44758 -0.140163
rclavicle -2.8625e-014 4.13472e-014
rhumerus -55.1699 53.4709 -85.8479
rradius 99.948
rwrist 16.3096
rhand -41.8481 -7.54007
rfingers 7.12502
rthumb -14.7488 323.005
lclavicle -2.8625e-014 4.13472e-014
lhumerus -7.33332 -44.2653 86.1
lradius 52.6302
lwrist 105.823
lhand -41.0961 41.9911
lfingers 7.12502
lthumb -14.0242 -288.502
rfemur -21.0739 16.341 17.3736
rtibia 16.8659
rfoot -14.1778 -16.7948
rtoes -5.78751
lfemur -30.8438 -4.40167 6.94466
ltibia 27.8912
lfoot -3.06253 19.2126
ltoes 0.546064
